<?xml version="1.0" encoding="UTF-8"?>
<svg xmlns="http://www.w3.org/2000/svg" width="1080" height="1920" viewBox="0 0 1080 1920">
  <defs>
    <linearGradient id="paperWash" x1="0" y1="0" x2="1" y2="1">
      <stop offset="0" stop-color="#F4EFE4"/>
      <stop offset="0.52" stop-color="#F8F4EA"/>
      <stop offset="1" stop-color="#E9E1D2"/>
    </linearGradient>
    <pattern id="dots" width="20" height="20" patternUnits="userSpaceOnUse">
      <circle cx="2" cy="2" r="1.1" fill="#C8BFAE" opacity="0.5"/>
    </pattern>
    <filter id="softShadow" x="-20%" y="-20%" width="140%" height="140%">
      <feDropShadow dx="0" dy="10" stdDeviation="12" flood-color="#514A3F" flood-opacity="0.12"/>
    </filter>
  </defs>

  <rect width="1080" height="1920" fill="url(#paperWash)"/>
  <rect width="1080" height="1920" fill="url(#dots)" opacity="0.5"/>
  <line x1="60" y1="0" x2="60" y2="1920" stroke="#C8BFAE" stroke-width="0.6" opacity="0.32"/><line x1="100" y1="0" x2="100" y2="1920" stroke="#C8BFAE" stroke-width="0.6" opacity="0.32"/><line x1="140" y1="0" x2="140" y2="1920" stroke="#C8BFAE" stroke-width="0.6" opacity="0.32"/><line x1="180" y1="0" x2="180" y2="1920" stroke="#C8BFAE" stroke-width="0.6" opacity="0.32"/><line x1="220" y1="0" x2="220" y2="1920" stroke="#C8BFAE" stroke-width="0.6" opacity="0.32"/><line x1="260" y1="0" x2="260" y2="1920" stroke="#C8BFAE" stroke-width="0.6" opacity="0.32"/><line x1="300" y1="0" x2="300" y2="1920" stroke="#C8BFAE" stroke-width="0.6" opacity="0.32"/><line x1="340" y1="0" x2="340" y2="1920" stroke="#C8BFAE" stroke-width="0.6" opacity="0.32"/><line x1="380" y1="0" x2="380" y2="1920" stroke="#C8BFAE" stroke-width="0.6" opacity="0.32"/><line x1="420" y1="0" x2="420" y2="1920" stroke="#C8BFAE" stroke-width="0.6" opacity="0.32"/><line x1="460" y1="0" x2="460" y2="1920" stroke="#C8BFAE" stroke-width="0.6" opacity="0.32"/><line x1="500" y1="0" x2="500" y2="1920" stroke="#C8BFAE" stroke-width="0.6" opacity="0.32"/><line x1="540" y1="0" x2="540" y2="1920" stroke="#C8BFAE" stroke-width="0.6" opacity="0.32"/><line x1="580" y1="0" x2="580" y2="1920" stroke="#C8BFAE" stroke-width="0.6" opacity="0.32"/><line x1="620" y1="0" x2="620" y2="1920" stroke="#C8BFAE" stroke-width="0.6" opacity="0.32"/><line x1="660" y1="0" x2="660" y2="1920" stroke="#C8BFAE" stroke-width="0.6" opacity="0.32"/><line x1="700" y1="0" x2="700" y2="1920" stroke="#C8BFAE" stroke-width="0.6" opacity="0.32"/><line x1="740" y1="0" x2="740" y2="1920" stroke="#C8BFAE" stroke-width="0.6" opacity="0.32"/><line x1="780" y1="0" x2="780" y2="1920" stroke="#C8BFAE" stroke-width="0.6" opacity="0.32"/><line x1="820" y1="0" x2="820" y2="1920" stroke="#C8BFAE" stroke-width="0.6" opacity="0.32"/><line x1="860" y1="0" x2="860" y2="1920" stroke="#C8BFAE" stroke-width="0.6" opacity="0.32"/><line x1="900" y1="0" x2="900" y2="1920" stroke="#C8BFAE" stroke-width="0.6" opacity="0.32"/><line x1="940" y1="0" x2="940" y2="1920" stroke="#C8BFAE" stroke-width="0.6" opacity="0.32"/><line x1="980" y1="0" x2="980" y2="1920" stroke="#C8BFAE" stroke-width="0.6" opacity="0.32"/><line x1="1020" y1="0" x2="1020" y2="1920" stroke="#C8BFAE" stroke-width="0.6" opacity="0.32"/><line x1="0" y1="70" x2="1080" y2="70" stroke="#C8BFAE" stroke-width="0.6" opacity="0.32"/><line x1="0" y1="110" x2="1080" y2="110" stroke="#C8BFAE" stroke-width="0.6" opacity="0.32"/><line x1="0" y1="150" x2="1080" y2="150" stroke="#C8BFAE" stroke-width="0.6" opacity="0.32"/><line x1="0" y1="190" x2="1080" y2="190" stroke="#C8BFAE" stroke-width="0.6" opacity="0.32"/><line x1="0" y1="230" x2="1080" y2="230" stroke="#C8BFAE" stroke-width="0.6" opacity="0.32"/><line x1="0" y1="270" x2="1080" y2="270" stroke="#C8BFAE" stroke-width="0.6" opacity="0.32"/><line x1="0" y1="310" x2="1080" y2="310" stroke="#C8BFAE" stroke-width="0.6" opacity="0.32"/><line x1="0" y1="350" x2="1080" y2="350" stroke="#C8BFAE" stroke-width="0.6" opacity="0.32"/><line x1="0" y1="390" x2="1080" y2="390" stroke="#C8BFAE" stroke-width="0.6" opacity="0.32"/><line x1="0" y1="430" x2="1080" y2="430" stroke="#C8BFAE" stroke-width="0.6" opacity="0.32"/><line x1="0" y1="470" x2="1080" y2="470" stroke="#C8BFAE" stroke-width="0.6" opacity="0.32"/><line x1="0" y1="510" x2="1080" y2="510" stroke="#C8BFAE" stroke-width="0.6" opacity="0.32"/><line x1="0" y1="550" x2="1080" y2="550" stroke="#C8BFAE" stroke-width="0.6" opacity="0.32"/><line x1="0" y1="590" x2="1080" y2="590" stroke="#C8BFAE" stroke-width="0.6" opacity="0.32"/><line x1="0" y1="630" x2="1080" y2="630" stroke="#C8BFAE" stroke-width="0.6" opacity="0.32"/><line x1="0" y1="670" x2="1080" y2="670" stroke="#C8BFAE" stroke-width="0.6" opacity="0.32"/><line x1="0" y1="710" x2="1080" y2="710" stroke="#C8BFAE" stroke-width="0.6" opacity="0.32"/><line x1="0" y1="750" x2="1080" y2="750" stroke="#C8BFAE" stroke-width="0.6" opacity="0.32"/><line x1="0" y1="790" x2="1080" y2="790" stroke="#C8BFAE" stroke-width="0.6" opacity="0.32"/><line x1="0" y1="830" x2="1080" y2="830" stroke="#C8BFAE" stroke-width="0.6" opacity="0.32"/><line x1="0" y1="870" x2="1080" y2="870" stroke="#C8BFAE" stroke-width="0.6" opacity="0.32"/><line x1="0" y1="910" x2="1080" y2="910" stroke="#C8BFAE" stroke-width="0.6" opacity="0.32"/><line x1="0" y1="950" x2="1080" y2="950" stroke="#C8BFAE" stroke-width="0.6" opacity="0.32"/><line x1="0" y1="990" x2="1080" y2="990" stroke="#C8BFAE" stroke-width="0.6" opacity="0.32"/><line x1="0" y1="1030" x2="1080" y2="1030" stroke="#C8BFAE" stroke-width="0.6" opacity="0.32"/><line x1="0" y1="1070" x2="1080" y2="1070" stroke="#C8BFAE" stroke-width="0.6" opacity="0.32"/><line x1="0" y1="1110" x2="1080" y2="1110" stroke="#C8BFAE" stroke-width="0.6" opacity="0.32"/><line x1="0" y1="1150" x2="1080" y2="1150" stroke="#C8BFAE" stroke-width="0.6" opacity="0.32"/><line x1="0" y1="1190" x2="1080" y2="1190" stroke="#C8BFAE" stroke-width="0.6" opacity="0.32"/><line x1="0" y1="1230" x2="1080" y2="1230" stroke="#C8BFAE" stroke-width="0.6" opacity="0.32"/><line x1="0" y1="1270" x2="1080" y2="1270" stroke="#C8BFAE" stroke-width="0.6" opacity="0.32"/><line x1="0" y1="1310" x2="1080" y2="1310" stroke="#C8BFAE" stroke-width="0.6" opacity="0.32"/><line x1="0" y1="1350" x2="1080" y2="1350" stroke="#C8BFAE" stroke-width="0.6" opacity="0.32"/><line x1="0" y1="1390" x2="1080" y2="1390" stroke="#C8BFAE" stroke-width="0.6" opacity="0.32"/><line x1="0" y1="1430" x2="1080" y2="1430" stroke="#C8BFAE" stroke-width="0.6" opacity="0.32"/><line x1="0" y1="1470" x2="1080" y2="1470" stroke="#C8BFAE" stroke-width="0.6" opacity="0.32"/><line x1="0" y1="1510" x2="1080" y2="1510" stroke="#C8BFAE" stroke-width="0.6" opacity="0.32"/><line x1="0" y1="1550" x2="1080" y2="1550" stroke="#C8BFAE" stroke-width="0.6" opacity="0.32"/><line x1="0" y1="1590" x2="1080" y2="1590" stroke="#C8BFAE" stroke-width="0.6" opacity="0.32"/><line x1="0" y1="1630" x2="1080" y2="1630" stroke="#C8BFAE" stroke-width="0.6" opacity="0.32"/><line x1="0" y1="1670" x2="1080" y2="1670" stroke="#C8BFAE" stroke-width="0.6" opacity="0.32"/><line x1="0" y1="1710" x2="1080" y2="1710" stroke="#C8BFAE" stroke-width="0.6" opacity="0.32"/><line x1="0" y1="1750" x2="1080" y2="1750" stroke="#C8BFAE" stroke-width="0.6" opacity="0.32"/><line x1="0" y1="1790" x2="1080" y2="1790" stroke="#C8BFAE" stroke-width="0.6" opacity="0.32"/><line x1="0" y1="1830" x2="1080" y2="1830" stroke="#C8BFAE" stroke-width="0.6" opacity="0.32"/>
  <path d="M-40 375 C190 330 270 430 470 374 C650 324 778 230 1120 292" fill="none" stroke="#E5B93C" stroke-width="76" opacity="0.12"/>
  <path d="M-30 1350 C180 1280 320 1420 520 1365 C740 1305 835 1170 1120 1245" fill="none" stroke="#008E8B" stroke-width="92" opacity="0.10"/>

  <g transform="translate(64 58)">
    <text x="0" y="0" font-size="18" font-weight="800" fill="#B5533B" letter-spacing="3">POSTER STATISTIK / INDONESIA EV TRANSITION</text>
    <text x="0" y="86" font-size="78" font-weight="900" fill="#202A2A" letter-spacing="0">Nusantara</text>
    <text x="0" y="158" font-size="78" font-weight="900" fill="#202A2A" letter-spacing="0">Electrified</text>
    <rect x="0" y="186" width="460" height="8" fill="#008E8B"/>
    <rect x="470" y="186" width="128" height="8" fill="#E5B93C"/>
    <text x="0" y="236" text-anchor="start" font-size="30" font-weight="760" fill="#202A2A" opacity="1" transform=""><tspan x="0" dy="0">Transisi Energi dan Tantangan Industri</tspan><tspan x="0" dy="36.6">Nasional</tspan></text>
    <text x="682" y="34" text-anchor="start" font-size="20" font-weight="560" fill="#586262" opacity="1" transform=""><tspan x="682" dy="0">EV melaju cepat.</tspan><tspan x="682" dy="24.4">Transformasi nasional</tspan><tspan x="682" dy="24.4">baru terjadi saat</tspan><tspan x="682" dy="24.4">listrik, infrastruktur,</tspan><tspan x="682" dy="24.4">dan industri lokal ikut</tspan><tspan x="682" dy="24.4">siap.</tspan></text>
  </g>

  <g filter="url(#softShadow)">
    <rect x="60" y="350" width="960" height="310" rx="8" fill="#FFFDF6" stroke="#C8BFAE" stroke-width="1.5"/>
    <rect x="60" y="350" width="960" height="16" rx="7" fill="#202A2A"/>
    <rect x="60" y="350" width="640" height="16" rx="7" fill="#008E8B"/>
    <text x="86" y="412" font-size="18" font-weight="800" fill="#B5533B" letter-spacing="2">AKSELERASI PASAR</text>
    <text x="82" y="493" font-size="82" font-weight="900" fill="#202A2A">103.931</text>
    <text x="86" y="535" font-size="29" font-weight="760" fill="#202A2A">BEV wholesales pada 2025</text>
    <text x="86" y="636" text-anchor="start" font-size="18" font-weight="550" fill="#586262" opacity="1" transform=""><tspan x="86" dy="0">Dari 125 unit pada 2020 menjadi 103.931</tspan><tspan x="86" dy="21.96">unit pada 2025: pasar berubah dari niche</tspan><tspan x="86" dy="21.96">menuju akselerasi.</tspan></text>
    <g transform="translate(500 0)">
      <line x1="0" y1="397" x2="0" y2="612" stroke="#C8BFAE" stroke-width="1.5"/>
      <text x="38" y="412" font-size="17" font-weight="750" fill="#586262" letter-spacing="1.6">2020-2025 SALES CURVE</text>
      
    <g>
      <rect x="86" y="572" width="36" height="3" rx="5" fill="#8C9998"/>
      <text x="104" y="604" text-anchor="middle" font-size="15" font-weight="700" fill="#202A2A">2020</text>
    </g>
    <g>
      <rect x="156" y="572" width="36" height="3" rx="5" fill="#8C9998"/>
      <text x="174" y="604" text-anchor="middle" font-size="15" font-weight="700" fill="#202A2A">2021</text>
    </g>
    <g>
      <rect x="226" y="556.9157517968653" width="36" height="18.08424820313477" rx="5" fill="#8C9998"/>
      <text x="244" y="604" text-anchor="middle" font-size="15" font-weight="700" fill="#202A2A">2022</text>
    </g>
    <g>
      <rect x="296" y="545.140939661891" width="36" height="29.859060338108936" rx="5" fill="#8C9998"/>
      <text x="314" y="604" text-anchor="middle" font-size="15" font-weight="700" fill="#202A2A">2023</text>
    </g>
    <g>
      <rect x="366" y="499.37082294984174" width="36" height="75.62917705015828" rx="5" fill="#E5B93C"/>
      <text x="384" y="604" text-anchor="middle" font-size="15" font-weight="700" fill="#202A2A">2024</text>
    </g>
    <g>
      <rect x="436" y="393" width="36" height="182" rx="5" fill="#008E8B"/>
      <text x="454" y="604" text-anchor="middle" font-size="15" font-weight="700" fill="#202A2A">2025</text>
    </g>
      <text x="450" y="493" text-anchor="end" font-size="50" font-weight="900" fill="#008E8B">+140,6%</text>
      <text x="450" y="524" text-anchor="end" font-size="18" font-weight="650" fill="#586262">YoY 2025</text>
    </g>
  </g>

  <g>
    <text x="64" y="724" font-size="21" font-weight="850" fill="#202A2A" letter-spacing="2">RANTAI INDUSTRI NASIONAL</text>
    <text x="1016" y="724" text-anchor="end" font-size="16" font-weight="700" fill="#586262">NIKEL -> BATERAI -> EV -> SPKLU -> GRID</text>
    <line x1="146" y1="838" x2="934" y2="838" stroke="#202A2A" stroke-width="3" opacity="0.8"/>
    <line x1="146" y1="838" x2="934" y2="838" stroke="#E5B93C" stroke-width="10" opacity="0.22"/>
    
    <g>
      <circle cx="146" cy="838" r="62" fill="#FFFDF6" stroke="#B5533B" stroke-width="5"/>
      <circle cx="146" cy="838" r="49" fill="#B5533B" opacity="0.12"/>
      <text x="146" y="831" text-anchor="middle" font-size="20" font-weight="800" fill="#202A2A">NIKEL</text>
      <text x="146" y="859" text-anchor="middle" font-size="19" font-weight="700" fill="#B5533B">106 proyek</text>
    </g>
    
    <g>
      <circle cx="344" cy="838" r="62" fill="#FFFDF6" stroke="#008E8B" stroke-width="5"/>
      <circle cx="344" cy="838" r="49" fill="#008E8B" opacity="0.12"/>
      <text x="344" y="831" text-anchor="middle" font-size="20" font-weight="800" fill="#202A2A">SEL</text>
      <text x="344" y="859" text-anchor="middle" font-size="19" font-weight="700" fill="#008E8B">140 GWh</text>
    </g>
    
    <g>
      <circle cx="542" cy="838" r="62" fill="#FFFDF6" stroke="#E5B93C" stroke-width="5"/>
      <circle cx="542" cy="838" r="49" fill="#E5B93C" opacity="0.12"/>
      <text x="542" y="831" text-anchor="middle" font-size="20" font-weight="800" fill="#202A2A">PABRIK</text>
      <text x="542" y="859" text-anchor="middle" font-size="19" font-weight="700" fill="#E5B93C">Subang</text>
    </g>
    
    <g>
      <circle cx="740" cy="838" r="62" fill="#FFFDF6" stroke="#006D70" stroke-width="5"/>
      <circle cx="740" cy="838" r="49" fill="#006D70" opacity="0.12"/>
      <text x="740" y="831" text-anchor="middle" font-size="20" font-weight="800" fill="#202A2A">PASAR</text>
      <text x="740" y="859" text-anchor="middle" font-size="19" font-weight="700" fill="#006D70">2M mobil</text>
    </g>
    
    <g>
      <circle cx="934" cy="838" r="62" fill="#FFFDF6" stroke="#8C9998" stroke-width="5"/>
      <circle cx="934" cy="838" r="49" fill="#8C9998" opacity="0.12"/>
      <text x="934" y="831" text-anchor="middle" font-size="20" font-weight="800" fill="#202A2A">GRID</text>
      <text x="934" y="859" text-anchor="middle" font-size="19" font-weight="700" fill="#8C9998">69,5 GW</text>
    </g>
    <text x="72" y="944" text-anchor="start" font-size="22" font-weight="620" fill="#202A2A" opacity="1" transform=""><tspan x="72" dy="0">Indonesia tidak hanya menjadi pasar EV. Ambisinya masuk ke manufaktur</tspan><tspan x="72" dy="26.84">kendaraan, baterai, dan mineral kritis; namun strategi berbasis nikel perlu</tspan><tspan x="72" dy="26.84">membaca risiko baterai LFP yang tidak membutuhkan nikel.</tspan></text>
  </g>

  <g>
    
    <g>
      <rect x="60" y="1020" width="300" height="190" rx="6" fill="#FFFDF6" stroke="#C8BFAE" stroke-width="1.4"/>
      <rect x="60" y="1020" width="7" height="190" rx="3.5" fill="#008E8B"/>
      <text x="84" y="1050" font-size="18" font-weight="700" fill="#586262" letter-spacing="1.2">INFRASTRUKTUR</text>
      <text x="84" y="1102" font-size="44" font-weight="800" fill="#202A2A">2.426</text>
      <text x="84" y="1136" text-anchor="start" font-size="19" font-weight="650" fill="#202A2A" opacity="1" transform=""><tspan x="84" dy="0">lokasi SPKLU tercatat</tspan></text>
      <text x="84" y="1178" text-anchor="start" font-size="14" font-weight="500" fill="#586262" opacity="1" transform=""><tspan x="84" dy="0">423 DKI Jakarta; 388 Jawa Barat;</tspan><tspan x="84" dy="17.08">konsentrasi masih urban.</tspan></text>
    </g>
    
    <g>
      <rect x="390" y="1020" width="300" height="190" rx="6" fill="#FFFDF6" stroke="#C8BFAE" stroke-width="1.4"/>
      <rect x="390" y="1020" width="7" height="190" rx="3.5" fill="#B5533B"/>
      <text x="414" y="1050" font-size="18" font-weight="700" fill="#586262" letter-spacing="1.2">LISTRIK</text>
      <text x="414" y="1102" font-size="44" font-weight="800" fill="#202A2A">0,680</text>
      <text x="414" y="1136" text-anchor="start" font-size="19" font-weight="650" fill="#202A2A" opacity="1" transform=""><tspan x="414" dy="0">kgCO2e/kWh faktor emisi</tspan><tspan x="414" dy="23.18">grid</tspan></text>
      <text x="414" y="1178" text-anchor="start" font-size="14" font-weight="500" fill="#586262" opacity="1" transform=""><tspan x="414" dy="0">1,56x rata-rata global; manfaat</tspan><tspan x="414" dy="17.08">EV naik saat listrik bersih.</tspan></text>
    </g>
    
    <g>
      <rect x="720" y="1020" width="300" height="190" rx="6" fill="#FFFDF6" stroke="#C8BFAE" stroke-width="1.4"/>
      <rect x="720" y="1020" width="7" height="190" rx="3.5" fill="#E5B93C"/>
      <text x="744" y="1050" font-size="18" font-weight="700" fill="#586262" letter-spacing="1.2">INDUSTRI</text>
      <text x="744" y="1102" font-size="44" font-weight="800" fill="#202A2A">40%</text>
      <text x="744" y="1136" text-anchor="start" font-size="19" font-weight="650" fill="#202A2A" opacity="1" transform=""><tspan x="744" dy="0">minimum TKDN untuk</tspan><tspan x="744" dy="23.18">insentif EV</tspan></text>
      <text x="744" y="1178" text-anchor="start" font-size="14" font-weight="500" fill="#586262" opacity="1" transform=""><tspan x="744" dy="0">Lokalisasi menjadi syarat daya</tspan><tspan x="744" dy="17.08">saing industri.</tspan></text>
    </g>
  </g>

  <g transform="translate(60 1250)" filter="url(#softShadow)">
    <rect x="0" y="0" width="452" height="312" rx="8" fill="#FFFDF6" stroke="#C8BFAE" stroke-width="1.4"/>
    <text x="28" y="43" font-size="18" font-weight="800" fill="#586262" letter-spacing="1.7">PETA KETIMPANGAN SPKLU</text>
    
    <g>
      <text x="28" y="82" font-size="16" font-weight="650" fill="#202A2A">DKI Jakarta</text>
      <text x="398" y="82" text-anchor="end" font-size="16" font-weight="750" fill="#202A2A">423</text>
      <rect x="28" y="92" width="370" height="8" rx="4" fill="#E9E1D2"/>
      <rect x="28" y="92" width="370" height="8" rx="4" fill="#008E8B"/>
    </g>
    
    <g>
      <text x="28" y="128" font-size="16" font-weight="650" fill="#202A2A">Jawa Barat</text>
      <text x="398" y="128" text-anchor="end" font-size="16" font-weight="750" fill="#202A2A">388</text>
      <rect x="28" y="138" width="370" height="8" rx="4" fill="#E9E1D2"/>
      <rect x="28" y="138" width="339.3853427895981" height="8" rx="4" fill="#008E8B"/>
    </g>
    
    <g>
      <text x="28" y="174" font-size="16" font-weight="650" fill="#202A2A">Jawa Timur</text>
      <text x="398" y="174" text-anchor="end" font-size="16" font-weight="750" fill="#202A2A">231</text>
      <rect x="28" y="184" width="370" height="8" rx="4" fill="#E9E1D2"/>
      <rect x="28" y="184" width="202.05673758865248" height="8" rx="4" fill="#8C9998"/>
    </g>
    
    <g>
      <text x="28" y="220" font-size="16" font-weight="650" fill="#202A2A">Jawa Tengah</text>
      <text x="398" y="220" text-anchor="end" font-size="16" font-weight="750" fill="#202A2A">228</text>
      <rect x="28" y="230" width="370" height="8" rx="4" fill="#E9E1D2"/>
      <rect x="28" y="230" width="199.43262411347519" height="8" rx="4" fill="#8C9998"/>
    </g>
    
    <g>
      <text x="28" y="266" font-size="16" font-weight="650" fill="#202A2A">Banten</text>
      <text x="398" y="266" text-anchor="end" font-size="16" font-weight="750" fill="#202A2A">195</text>
      <rect x="28" y="276" width="370" height="8" rx="4" fill="#E9E1D2"/>
      <rect x="28" y="276" width="170.56737588652481" height="8" rx="4" fill="#E5B93C"/>
    </g>
  </g>

  <g transform="translate(568 1250)" filter="url(#softShadow)">
    <rect x="0" y="0" width="452" height="312" rx="8" fill="#FFFDF6" stroke="#C8BFAE" stroke-width="1.4"/>
    <text x="28" y="43" font-size="18" font-weight="800" fill="#586262" letter-spacing="1.7">TANTANGAN INDUSTRI</text>
    <g transform="translate(28 76)">
      <text x="0" y="0" font-size="42" font-weight="900" fill="#B5533B">21 stalled</text>
      <text x="0" y="31" font-size="18" font-weight="650" fill="#202A2A">dari 106 proyek smelter terlacak</text>
      <text x="0" y="84" font-size="42" font-weight="900" fill="#008E8B">10 GWh</text>
      <text x="0" y="115" font-size="18" font-weight="650" fill="#202A2A">HLI Green Power, Karawang</text>
      <text x="0" y="168" font-size="42" font-weight="900" fill="#E5B93C">150k/tahun</text>
      <text x="0" y="199" font-size="18" font-weight="650" fill="#202A2A">target kapasitas pabrik BYD Subang</text>
    </g>
  </g>

  <g transform="translate(60 1602)">
    <rect x="0" y="0" width="960" height="188" rx="8" fill="#202A2A"/>
    <rect x="0" y="0" width="960" height="188" rx="8" fill="#008E8B" opacity="0.12"/>
    <text x="32" y="48" font-size="18" font-weight="800" fill="#E5B93C" letter-spacing="2">ENERGI BERSIH MENENTUKAN DAMPAK</text>
    <text x="32" y="104" font-size="38" font-weight="900" fill="#FFFDF6">A-car ICE 246 -> BEV 127 gCO2e/km</text>
    <text x="32" y="140" font-size="21" font-weight="650" fill="#DDE9E4">EV lebih rendah emisi siklus hidup, tetapi pengurangannya membesar ketika grid nasional makin bersih.</text>
    <g transform="translate(752 34)">
      <circle cx="62" cy="62" r="58" fill="none" stroke="#C8BFAE" stroke-width="10" opacity="0.3"/>
      <path d="M62 4 A58 58 0 1 1 14 95" fill="none" stroke="#E5B93C" stroke-width="10" stroke-linecap="round"/>
      <text x="62" y="58" text-anchor="middle" font-size="32" font-weight="900" fill="#FFFDF6">42,6</text>
      <text x="62" y="84" text-anchor="middle" font-size="16" font-weight="750" fill="#E5B93C">GW EBT</text>
    </g>
  </g>

  <g transform="translate(60 1818)">
    <text x="0" y="0" font-size="26" font-weight="900" fill="#202A2A">EV melaju cepat; transformasi nasional menuntut listrik bersih, infrastruktur merata, dan industri lokal yang tangguh.</text>
    <text x="0" y="40" font-size="13" font-weight="600" fill="#586262">GAIKINDO/ICCT; PLN SPKLU dataset; PLN/ESDM RUPTL 2025-2034; ICCT LCA; industry research datasets.</text>
  </g>
</svg>